<svg xmlns="http://www.w3.org/2000/svg" viewBox="0 0 16 16" width="64" height="64" shape-rendering="crispEdges">
  <!-- Row 1 -->
  <rect x="5" y="1" width="5" height="1" fill="#3d1200"/>
  <!-- Row 2 -->
  <rect x="3" y="2" width="2" height="1" fill="#3d1200"/>
  <rect x="5" y="2" width="1" height="1" fill="#ffffff"/>
  <rect x="6" y="2" width="3" height="1" fill="#ffee88"/>
  <rect x="9" y="2" width="1" height="1" fill="#ffcc44"/>
  <rect x="10" y="2" width="2" height="1" fill="#3d1200"/>
  <!-- Row 3 -->
  <rect x="2" y="3" width="2" height="1" fill="#3d1200"/>
  <rect x="4" y="3" width="1" height="1" fill="#ffffff"/>
  <rect x="5" y="3" width="3" height="1" fill="#ffee88"/>
  <rect x="8" y="3" width="3" height="1" fill="#ffcc44"/>
  <rect x="11" y="3" width="2" height="1" fill="#3d1200"/>
  <!-- Row 4 -->
  <rect x="2" y="4" width="1" height="1" fill="#3d1200"/>
  <rect x="3" y="4" width="1" height="1" fill="#ffffff"/>
  <rect x="4" y="4" width="3" height="1" fill="#ffee88"/>
  <rect x="7" y="4" width="3" height="1" fill="#ffcc44"/>
  <rect x="10" y="4" width="2" height="1" fill="#ff9900"/>
  <rect x="12" y="4" width="1" height="1" fill="#3d1200"/>
  <!-- Row 5 -->
  <rect x="1" y="5" width="1" height="1" fill="#3d1200"/>
  <rect x="2" y="5" width="1" height="1" fill="#ffffff"/>
  <rect x="3" y="5" width="3" height="1" fill="#ffee88"/>
  <rect x="6" y="5" width="3" height="1" fill="#ffcc44"/>
  <rect x="9" y="5" width="3" height="1" fill="#ff9900"/>
  <rect x="12" y="5" width="1" height="1" fill="#ff6600"/>
  <rect x="13" y="5" width="1" height="1" fill="#3d1200"/>
  <!-- Row 6 -->
  <rect x="1" y="6" width="1" height="1" fill="#3d1200"/>
  <rect x="2" y="6" width="3" height="1" fill="#ffee88"/>
  <rect x="5" y="6" width="3" height="1" fill="#ffcc44"/>
  <rect x="8" y="6" width="3" height="1" fill="#ff9900"/>
  <rect x="11" y="6" width="2" height="1" fill="#ff6600"/>
  <rect x="13" y="6" width="1" height="1" fill="#3d1200"/>
  <!-- Row 7 -->
  <rect x="1" y="7" width="1" height="1" fill="#3d1200"/>
  <rect x="2" y="7" width="2" height="1" fill="#ffee88"/>
  <rect x="4" y="7" width="3" height="1" fill="#ffcc44"/>
  <rect x="7" y="7" width="3" height="1" fill="#ff9900"/>
  <rect x="10" y="7" width="3" height="1" fill="#ff6600"/>
  <rect x="13" y="7" width="1" height="1" fill="#3d1200"/>
  <!-- Row 8 -->
  <rect x="1" y="8" width="1" height="1" fill="#3d1200"/>
  <rect x="2" y="8" width="1" height="1" fill="#ffee88"/>
  <rect x="3" y="8" width="3" height="1" fill="#ffcc44"/>
  <rect x="6" y="8" width="3" height="1" fill="#ff9900"/>
  <rect x="9" y="8" width="3" height="1" fill="#ff6600"/>
  <rect x="12" y="8" width="1" height="1" fill="#cc3300"/>
  <rect x="13" y="8" width="1" height="1" fill="#3d1200"/>
  <!-- Row 9 -->
  <rect x="1" y="9" width="1" height="1" fill="#3d1200"/>
  <rect x="2" y="9" width="3" height="1" fill="#ffcc44"/>
  <rect x="5" y="9" width="3" height="1" fill="#ff9900"/>
  <rect x="8" y="9" width="3" height="1" fill="#ff6600"/>
  <rect x="11" y="9" width="2" height="1" fill="#cc3300"/>
  <rect x="13" y="9" width="1" height="1" fill="#3d1200"/>
  <!-- Row 10 -->
  <rect x="2" y="10" width="1" height="1" fill="#3d1200"/>
  <rect x="3" y="10" width="1" height="1" fill="#ffcc44"/>
  <rect x="4" y="10" width="3" height="1" fill="#ff9900"/>
  <rect x="7" y="10" width="3" height="1" fill="#ff6600"/>
  <rect x="10" y="10" width="2" height="1" fill="#cc3300"/>
  <rect x="12" y="10" width="1" height="1" fill="#3d1200"/>
  <!-- Row 11 -->
  <rect x="2" y="11" width="2" height="1" fill="#3d1200"/>
  <rect x="4" y="11" width="2" height="1" fill="#ff9900"/>
  <rect x="6" y="11" width="3" height="1" fill="#ff6600"/>
  <rect x="9" y="11" width="2" height="1" fill="#cc3300"/>
  <rect x="11" y="11" width="2" height="1" fill="#3d1200"/>
  <!-- Row 12 -->
  <rect x="3" y="12" width="2" height="1" fill="#3d1200"/>
  <rect x="5" y="12" width="3" height="1" fill="#ff6600"/>
  <rect x="8" y="12" width="2" height="1" fill="#cc3300"/>
  <rect x="10" y="12" width="2" height="1" fill="#3d1200"/>
  <!-- Row 13 -->
  <rect x="5" y="13" width="5" height="1" fill="#3d1200"/>
</svg>
